# xmcd CD database file
#
# Track frame offsets:
#	150
#	7741
#	29747
#	48641
#	67237
#	81988
#	101296
#	114743
#	137715
#	151843
#	174605
#	198066
#	228629
#	246986
#
# Disc length: 3362 seconds
#
# Revision: 0
# Processed by: cddbd v1.5.2PL0 Copyright (c) Steve Scherf et al.
# Submitted via: CDex 1.70beta3
#
DISCID=bd0d200e
DTITLE=Gypsy Vagabonz - Vagagology Theater
DYEAR=2016
DGENRE=Jazz
TTITLE0=幕開けのワルツ
TTITLE1=汚れた魔女
TTITLE2=Catch me if you can?
TTITLE3=花柄ワンピース
TTITLE4=禁じられてる愛
TTITLE5=桜咲く季節
TTITLE6=危険なゲーム
TTITLE7=ツキアカリ
TTITLE8=Boom boo
TTITLE9=ふるさとはうみ
TTITLE10=いつもいっしょ
TTITLE11=シーサイドにゆれる
TTITLE12=ヴァガゴロジー
TTITLE13=polly swing (inst.)
EXTD=YEAR: 2016
EXTT0=
EXTT1=
EXTT2=
EXTT3=
EXTT4=
EXTT5=
EXTT6=
EXTT7=
EXTT8=
EXTT9=
EXTT10=
EXTT11=
EXTT12=
EXTT13=
PLAYORDER=
